<svg id="Camada_1" data-name="Camada 1" xmlns="http://www.w3.org/2000/svg" viewBox="0 0 460.79 65.1"><defs><style>.cls-1{fill:#060aff;}.cls-2{fill:#fff;}</style></defs><title>02</title><path class="cls-1" d="M201.51,323.91a.9.9,0,0,0-1.25-.38,12.2,12.2,0,0,1-5.68,1.71c-2.83,0-5.12-1.69-5.12-6V305.15h11.47a.9.9,0,0,0,.9-.9v-4.6a.9.9,0,0,0-.9-.9H189.46v-8.87a.9.9,0,0,0-.9-.9h-5.27a.9.9,0,0,0-.9.9v29.46c0,8.59,4.27,12.53,11.59,12.53a17.16,17.16,0,0,0,9.23-2.76.9.9,0,0,0,.31-1.17Z" transform="translate(-69.57 -266.77)"/><path class="cls-2" d="M396,330.1V304.88a3.63,3.63,0,0,1,3-3.59c4-.65,10.89-1.81,14.29-2.37a.91.91,0,0,1,1.05.92v4.05a.91.91,0,0,1-.79.91c-2.72.4-7.45,1.29-9.89,1.64a.92.92,0,0,0-.77.92V330.1a.93.93,0,0,1-.93.93H397A.93.93,0,0,1,396,330.1Z" transform="translate(-69.57 -266.77)"/><path class="cls-2" d="M320.93,304.72H346.4V286.88a.9.9,0,0,1,.9-.9h5.81a.9.9,0,0,1,.9.9v43.25a.9.9,0,0,1-.9.9H347.3a.9.9,0,0,1-.9-.9v-18.2H320.93V330.1a.9.9,0,0,1-.9.9h-5.82a.91.91,0,0,1-.9-.9V286.88a.9.9,0,0,1,.9-.9H320a.9.9,0,0,1,.9.9Z" transform="translate(-69.57 -266.77)"/><path class="cls-1" d="M141.66,314.89c0,9.67-7.41,17-17.38,17s-17.36-7.31-17.36-17,7.38-17,17.36-17S141.66,305.22,141.66,314.89Zm-27.49,0c0,6.1,4.34,10.35,10.11,10.35a10.35,10.35,0,0,0,0-20.69C118.51,304.55,114.17,308.79,114.17,314.89Z" transform="translate(-69.57 -266.77)"/><path class="cls-1" d="M240.37,330.14a.88.88,0,0,1-.88.89h-6.16v-3.87a12.25,12.25,0,0,1-10.14,4.71c-9,0-16.14-7.11-16.14-17s7.11-17,16.14-17a12.27,12.27,0,0,1,10.14,4.75v-3.91h6.16a.88.88,0,0,1,.88.89ZM214.3,314.89c0,5.66,3.67,10.35,9.73,10.35,5.83,0,9.74-4.45,9.74-10.35s-3.91-10.34-9.74-10.34C218,304.55,214.3,309.23,214.3,314.89Z" transform="translate(-69.57 -266.77)"/><path class="cls-2" d="M486,328.66a2.37,2.37,0,0,1-2.36,2.37H479v-3.87a12.25,12.25,0,0,1-10.14,4.71c-9,0-16.14-7.11-16.14-17s7.11-17,16.14-17A12.27,12.27,0,0,1,479,302.66v-3.91h4.68a2.37,2.37,0,0,1,2.36,2.37ZM460,314.89c0,5.66,3.67,10.35,9.73,10.35,5.83,0,9.74-4.45,9.74-10.35s-3.91-10.34-9.74-10.34C463.63,304.55,460,309.23,460,314.89Z" transform="translate(-69.57 -266.77)"/><path class="cls-1" d="M279,314.89c0,9.87-7.12,17-16.15,17a12.23,12.23,0,0,1-10.1-4.68V331h-6.14a.9.9,0,0,1-.9-.9V286.92a.9.9,0,0,1,.9-.9h5.24a.9.9,0,0,1,.9.9v15.67a12.23,12.23,0,0,1,10.1-4.68C271.9,297.91,279,305,279,314.89Zm-26.72,0c0,5.9,3.91,10.35,9.73,10.35,6.07,0,9.74-4.69,9.74-10.35s-3.67-10.34-9.74-10.34C256.21,304.55,252.3,309,252.3,314.89Z" transform="translate(-69.57 -266.77)"/><path class="cls-1" d="M292.86,290.29a4.18,4.18,0,0,1-4.28,4.22,4.13,4.13,0,0,1-4.21-4.22,4.17,4.17,0,0,1,4.21-4.27A4.23,4.23,0,0,1,292.86,290.29ZM291.24,331H286a.92.92,0,0,1-.92-.91V299.67a.92.92,0,0,1,.92-.92h5.25a.92.92,0,0,1,.91.92v30.45A.91.91,0,0,1,291.24,331Z" transform="translate(-69.57 -266.77)"/><path class="cls-1" d="M304.4,331h-5.3a.89.89,0,0,1-.89-.89V286.9a.88.88,0,0,1,.89-.88h5.3a.87.87,0,0,1,.88.88v43.24A.88.88,0,0,1,304.4,331Z" transform="translate(-69.57 -266.77)"/><path class="cls-2" d="M497,331H492.9a1.51,1.51,0,0,1-1.51-1.51v-42A1.5,1.5,0,0,1,492.9,286H497a1.5,1.5,0,0,1,1.51,1.51v42A1.51,1.51,0,0,1,497,331Z" transform="translate(-69.57 -266.77)"/><path class="cls-2" d="M385,317.49H366.7c.95,5.79,5,8.22,9.6,8.22a15.3,15.3,0,0,0,8.48-2.77,1.05,1.05,0,0,1,1.47.24l2.32,3.32a1.08,1.08,0,0,1-.22,1.46,19.61,19.61,0,0,1-12.48,3.91c-9.67,0-16.52-6.73-16.52-17,0-10.1,6.58-17,16.08-17,7.94,0,13.69,5.32,15,13.45C390.49,311.85,391.6,317.49,385,317.49Zm-18.22-5.36h16.75c-.78-5-3.71-7.95-8.19-7.95C370.27,304.18,367.48,307.41,366.73,312.13Z" transform="translate(-69.57 -266.77)"/><path class="cls-2" d="M437.71,331H433a2.72,2.72,0,0,1-2.51-1.69L418.63,299.8a.77.77,0,0,1,.71-1.05h5.93a.9.9,0,0,1,.85.59l9.31,24.38,9.32-24.42a.87.87,0,0,1,.8-.55h5.78a.76.76,0,0,1,.7,1l-11.81,29.54A2.69,2.69,0,0,1,437.71,331Z" transform="translate(-69.57 -266.77)"/><path class="cls-1" d="M502,266.77a.76.76,0,0,0-.53,1.3l5.27,5.28a.77.77,0,0,0,.54.22H522.8a.76.76,0,0,1,.76.76v15.49a.74.74,0,0,0,.23.54l5.27,5.28a.76.76,0,0,0,1.3-.54V267.53a.76.76,0,0,0-.76-.76Z" transform="translate(-69.57 -266.77)"/><path class="cls-2" d="M523.56,297.6v-7.15a.79.79,0,0,0-.22-.54l-16.12-16.12a.79.79,0,0,0-.54-.22h-7.45a.76.76,0,0,0-.54,1.3l23.58,23.28A.76.76,0,0,0,523.56,297.6Z" transform="translate(-69.57 -266.77)"/><path class="cls-1" d="M102.16,322.76a.86.86,0,0,0-1.1-.1A15.07,15.07,0,0,1,92.85,325c-9.08,0-15.75-6.58-15.75-16.17s6.67-16.16,15.75-16.16a15,15,0,0,1,8.23,2.36.89.89,0,0,0,1.11-.11l3.87-3.92a.91.91,0,0,0-.12-1.38,23.3,23.3,0,0,0-13.09-3.84c-13.65,0-23.28,9.78-23.28,23.05s9.63,23.05,23.28,23.05a23,23,0,0,0,13.08-3.9.91.91,0,0,0,.11-1.38Z" transform="translate(-69.57 -266.77)"/><path class="cls-1" d="M164.69,297.39h-5.3A12.37,12.37,0,0,0,147,309.76v20.38a.89.89,0,0,0,.89.89h5.31a.89.89,0,0,0,.88-.88V311.4a7.28,7.28,0,0,1,7.28-7.28h1.25a7.29,7.29,0,0,1,7.29,7.3v18.7a.92.92,0,0,0,.92.91h5.3a.9.9,0,0,0,.9-.9v-20.4A12.34,12.34,0,0,0,164.69,297.39Z" transform="translate(-69.57 -266.77)"/></svg>