<svg id="Camada_1" data-name="Camada 1" xmlns="http://www.w3.org/2000/svg" viewBox="0 0 600 600"><defs><style>.cls-1{fill:#fff;}</style></defs><path class="cls-1" d="M237.35,220a3.85,3.85,0,0,0-2.72,6.58l26.7,26.7a3.81,3.81,0,0,0,2.72,1.13h78.42a3.85,3.85,0,0,1,3.85,3.86v78.41a3.89,3.89,0,0,0,1.13,2.73l26.7,26.7a3.86,3.86,0,0,0,6.58-2.73V223.89a3.86,3.86,0,0,0-3.85-3.86Z"/><path class="cls-1" d="M346.32,376.1V339.9a3.81,3.81,0,0,0-1.13-2.72l-81.6-81.61a3.89,3.89,0,0,0-2.73-1.13H223.13a3.86,3.86,0,0,0-2.71,6.6L339.76,378.85A3.85,3.85,0,0,0,346.32,376.1Z"/></svg>