<svg id="Camada_1" data-name="Camada 1" xmlns="http://www.w3.org/2000/svg" viewBox="0 0 600 600"><defs><style>.cls-1{fill:#060aff;}.cls-2{fill:#010477;}</style></defs><path class="cls-1" d="M202,305.83a.88.88,0,0,0-1.25-.37,12.17,12.17,0,0,1-5.65,1.69c-2.82,0-5.1-1.68-5.1-6v-14h11.42a.9.9,0,0,0,.9-.89v-4.59a.9.9,0,0,0-.9-.89H190V272a.89.89,0,0,0-.89-.9h-5.26a.89.89,0,0,0-.89.9v29.33c0,8.55,4.26,12.48,11.54,12.48a17.12,17.12,0,0,0,9.19-2.75.89.89,0,0,0,.31-1.16Z"/><path class="cls-2" d="M395.67,312V286.88a3.62,3.62,0,0,1,3-3.58L412.93,281a.91.91,0,0,1,1.05.91v4a.91.91,0,0,1-.78.91c-2.71.4-7.43,1.28-9.85,1.64a.91.91,0,0,0-.78.91V312a.92.92,0,0,1-.92.92h-5.06A.92.92,0,0,1,395.67,312Z"/><path class="cls-2" d="M320.87,286.72h25.37V269a.89.89,0,0,1,.89-.9h5.79a.9.9,0,0,1,.9.9V312a.9.9,0,0,1-.9.9h-5.79a.89.89,0,0,1-.89-.9V293.9H320.87V312a.89.89,0,0,1-.89.89h-5.79a.89.89,0,0,1-.9-.89V269a.9.9,0,0,1,.9-.9H320a.89.89,0,0,1,.89.9Z"/><path class="cls-1" d="M142.36,296.85c0,9.63-7.38,16.91-17.31,16.91s-17.28-7.28-17.28-16.91,7.35-16.91,17.28-16.91S142.36,287.22,142.36,296.85Zm-27.37,0c0,6.07,4.32,10.3,10.06,10.3a10.3,10.3,0,0,0,0-20.6C119.31,286.55,115,290.78,115,296.85Z"/><path class="cls-1" d="M240.66,312a.89.89,0,0,1-.89.88h-6.13v-3.86a12.18,12.18,0,0,1-10.09,4.7c-9,0-16.08-7.08-16.08-16.91s7.09-16.91,16.08-16.91a12.2,12.2,0,0,1,10.09,4.73v-3.89h6.13a.88.88,0,0,1,.89.88Zm-26-15.19c0,5.64,3.66,10.3,9.69,10.3,5.81,0,9.7-4.43,9.7-10.3s-3.89-10.3-9.7-10.3C218.35,286.55,214.69,291.21,214.69,296.85Z"/><path class="cls-2" d="M485.28,310.56a2.36,2.36,0,0,1-2.36,2.36h-4.65v-3.86a12.21,12.21,0,0,1-10.1,4.7c-9,0-16.07-7.08-16.07-16.91s7.08-16.91,16.07-16.91a12.23,12.23,0,0,1,10.1,4.73v-3.89h4.65a2.36,2.36,0,0,1,2.36,2.35Zm-26-13.71c0,5.64,3.66,10.3,9.7,10.3,5.8,0,9.69-4.43,9.69-10.3s-3.89-10.3-9.69-10.3C463,286.55,459.31,291.21,459.31,296.85Z"/><path class="cls-1" d="M279.14,296.85c0,9.83-7.08,16.91-16.08,16.91A12.22,12.22,0,0,1,253,309.1v3.82h-6.12a.89.89,0,0,1-.89-.9V269a.89.89,0,0,1,.89-.89h5.22a.89.89,0,0,1,.9.89V284.6a12.19,12.19,0,0,1,10.06-4.66C272.06,279.94,279.14,287,279.14,296.85Zm-26.61,0c0,5.87,3.89,10.3,9.7,10.3,6,0,9.69-4.66,9.69-10.3s-3.65-10.3-9.69-10.3C256.42,286.55,252.53,291,252.53,296.85Z"/><path class="cls-1" d="M292.92,272.35a4.16,4.16,0,0,1-4.26,4.2,4.11,4.11,0,0,1-4.19-4.2,4.16,4.16,0,0,1,4.19-4.25A4.21,4.21,0,0,1,292.92,272.35Zm-1.61,40.57h-5.23a.91.91,0,0,1-.91-.91V281.69a.91.91,0,0,1,.91-.91h5.23a.91.91,0,0,1,.91.91V312A.91.91,0,0,1,291.31,312.92Z"/><path class="cls-1" d="M304.41,312.92h-5.28a.88.88,0,0,1-.88-.88V269a.87.87,0,0,1,.88-.88h5.28a.87.87,0,0,1,.88.88V312A.88.88,0,0,1,304.41,312.92Z"/><path class="cls-2" d="M496.15,312.92h-4a1.5,1.5,0,0,1-1.5-1.5V269.6a1.5,1.5,0,0,1,1.5-1.5h4a1.51,1.51,0,0,1,1.51,1.5v41.82A1.51,1.51,0,0,1,496.15,312.92Z"/><path class="cls-2" d="M384.62,299.43H366.45c.94,5.77,5,8.19,9.56,8.19a15.23,15.23,0,0,0,8.44-2.75,1,1,0,0,1,1.46.24l2.31,3.3a1.07,1.07,0,0,1-.21,1.45,19.54,19.54,0,0,1-12.43,3.9c-9.63,0-16.44-6.71-16.44-16.91s6.54-16.91,16-16.91c7.91,0,13.64,5.3,14.93,13.39C390.14,293.82,391.25,299.43,384.62,299.43Zm-18.14-5.33h16.68c-.77-5-3.69-7.92-8.15-7.92C370,286.18,367.22,289.4,366.48,294.1Z"/><path class="cls-2" d="M437.16,312.92h-4.68a2.7,2.7,0,0,1-2.5-1.69l-11.81-29.41a.75.75,0,0,1,.7-1h5.9a.91.91,0,0,1,.85.58l9.27,24.28,9.28-24.32a.87.87,0,0,1,.8-.54h5.75a.75.75,0,0,1,.7,1l-11.76,29.42A2.7,2.7,0,0,1,437.16,312.92Z"/><path class="cls-1" d="M501.21,248.93a.76.76,0,0,0-.53,1.3l5.25,5.25a.76.76,0,0,0,.54.22h15.42a.76.76,0,0,1,.76.76v15.43a.75.75,0,0,0,.22.53l5.26,5.25a.75.75,0,0,0,1.29-.53V249.69a.76.76,0,0,0-.76-.76Z"/><path class="cls-2" d="M522.65,279.64v-7.13a.75.75,0,0,0-.22-.53l-16.06-16.06a.75.75,0,0,0-.53-.22h-7.42a.76.76,0,0,0-.54,1.3l23.48,23.17A.75.75,0,0,0,522.65,279.64Z"/><path class="cls-1" d="M103,304.68a.89.89,0,0,0-1.1-.1,14.93,14.93,0,0,1-8.18,2.32c-9,0-15.68-6.55-15.68-16.09s6.64-16.1,15.68-16.1a15.05,15.05,0,0,1,8.21,2.35.87.87,0,0,0,1.1-.11l3.85-3.9a.9.9,0,0,0-.11-1.37,23.19,23.19,0,0,0-13-3.83c-13.59,0-23.17,9.74-23.17,23s9.58,22.95,23.17,22.95a22.92,22.92,0,0,0,13-3.89.91.91,0,0,0,.1-1.38Z"/><path class="cls-1" d="M165.29,279.42H160a12.33,12.33,0,0,0-12.32,12.32V312a.89.89,0,0,0,.89.88h5.28a.87.87,0,0,0,.88-.88V293.38a7.25,7.25,0,0,1,7.25-7.25h1.24a7.26,7.26,0,0,1,7.26,7.26V312a.91.91,0,0,0,.91.91h5.28a.9.9,0,0,0,.91-.9V291.71A12.3,12.3,0,0,0,165.29,279.42Z"/><path class="cls-1" d="M232.64,267.9c-2.88.5-16.18,2.75-16.52,2.79a.92.92,0,0,0-.79.92v4a.92.92,0,0,0,1,.92c2.87-.5,16.18-2.75,16.52-2.8a.91.91,0,0,0,.78-.91v-4A.9.9,0,0,0,232.64,267.9Z"/></svg>